G04 #@! TF.GenerationSoftware,KiCad,Pcbnew,5.0.2+dfsg1-1~bpo9+1*
G04 #@! TF.CreationDate,2021-03-14T19:34:14+00:00*
G04 #@! TF.ProjectId,gameboy_cart_screen,67616d65-626f-4795-9f63-6172745f7363,rev?*
G04 #@! TF.SameCoordinates,Original*
G04 #@! TF.FileFunction,Legend,Top*
G04 #@! TF.FilePolarity,Positive*
%FSLAX46Y46*%
G04 Gerber Fmt 4.6, Leading zero omitted, Abs format (unit mm)*
G04 Created by KiCad (PCBNEW 5.0.2+dfsg1-1~bpo9+1) date Sun 14 Mar 2021 19:34:14 GMT*
%MOMM*%
%LPD*%
G01*
G04 APERTURE LIST*
%ADD10C,0.300000*%
%ADD11C,0.150000*%
G04 APERTURE END LIST*
D10*
X138388571Y-73642857D02*
X137888571Y-73642857D01*
X137888571Y-74428571D02*
X137888571Y-72928571D01*
X138602857Y-72928571D01*
X139817142Y-74428571D02*
X139817142Y-73642857D01*
X139745714Y-73500000D01*
X139602857Y-73428571D01*
X139317142Y-73428571D01*
X139174285Y-73500000D01*
X139817142Y-74357142D02*
X139674285Y-74428571D01*
X139317142Y-74428571D01*
X139174285Y-74357142D01*
X139102857Y-74214285D01*
X139102857Y-74071428D01*
X139174285Y-73928571D01*
X139317142Y-73857142D01*
X139674285Y-73857142D01*
X139817142Y-73785714D01*
X141174285Y-74357142D02*
X141031428Y-74428571D01*
X140745714Y-74428571D01*
X140602857Y-74357142D01*
X140531428Y-74285714D01*
X140460000Y-74142857D01*
X140460000Y-73714285D01*
X140531428Y-73571428D01*
X140602857Y-73500000D01*
X140745714Y-73428571D01*
X141031428Y-73428571D01*
X141174285Y-73500000D01*
X142388571Y-74357142D02*
X142245714Y-74428571D01*
X141960000Y-74428571D01*
X141817142Y-74357142D01*
X141745714Y-74214285D01*
X141745714Y-73642857D01*
X141817142Y-73500000D01*
X141960000Y-73428571D01*
X142245714Y-73428571D01*
X142388571Y-73500000D01*
X142460000Y-73642857D01*
X142460000Y-73785714D01*
X141745714Y-73928571D01*
X143317142Y-74428571D02*
X143174285Y-74357142D01*
X143102857Y-74214285D01*
X143102857Y-72928571D01*
X144460000Y-74357142D02*
X144317142Y-74428571D01*
X144031428Y-74428571D01*
X143888571Y-74357142D01*
X143817142Y-74214285D01*
X143817142Y-73642857D01*
X143888571Y-73500000D01*
X144031428Y-73428571D01*
X144317142Y-73428571D01*
X144460000Y-73500000D01*
X144531428Y-73642857D01*
X144531428Y-73785714D01*
X143817142Y-73928571D01*
X145102857Y-74357142D02*
X145245714Y-74428571D01*
X145531428Y-74428571D01*
X145674285Y-74357142D01*
X145745714Y-74214285D01*
X145745714Y-74142857D01*
X145674285Y-74000000D01*
X145531428Y-73928571D01*
X145317142Y-73928571D01*
X145174285Y-73857142D01*
X145102857Y-73714285D01*
X145102857Y-73642857D01*
X145174285Y-73500000D01*
X145317142Y-73428571D01*
X145531428Y-73428571D01*
X145674285Y-73500000D01*
X146317142Y-74357142D02*
X146460000Y-74428571D01*
X146745714Y-74428571D01*
X146888571Y-74357142D01*
X146960000Y-74214285D01*
X146960000Y-74142857D01*
X146888571Y-74000000D01*
X146745714Y-73928571D01*
X146531428Y-73928571D01*
X146388571Y-73857142D01*
X146317142Y-73714285D01*
X146317142Y-73642857D01*
X146388571Y-73500000D01*
X146531428Y-73428571D01*
X146745714Y-73428571D01*
X146888571Y-73500000D01*
X147388571Y-73428571D02*
X147960000Y-73428571D01*
X147602857Y-72928571D02*
X147602857Y-74214285D01*
X147674285Y-74357142D01*
X147817142Y-74428571D01*
X147960000Y-74428571D01*
X149031428Y-74357142D02*
X148888571Y-74428571D01*
X148602857Y-74428571D01*
X148460000Y-74357142D01*
X148388571Y-74214285D01*
X148388571Y-73642857D01*
X148460000Y-73500000D01*
X148602857Y-73428571D01*
X148888571Y-73428571D01*
X149031428Y-73500000D01*
X149102857Y-73642857D01*
X149102857Y-73785714D01*
X148388571Y-73928571D01*
X150388571Y-74357142D02*
X150245714Y-74428571D01*
X149960000Y-74428571D01*
X149817142Y-74357142D01*
X149745714Y-74285714D01*
X149674285Y-74142857D01*
X149674285Y-73714285D01*
X149745714Y-73571428D01*
X149817142Y-73500000D01*
X149960000Y-73428571D01*
X150245714Y-73428571D01*
X150388571Y-73500000D01*
X151031428Y-74428571D02*
X151031428Y-72928571D01*
X151674285Y-74428571D02*
X151674285Y-73642857D01*
X151602857Y-73500000D01*
X151460000Y-73428571D01*
X151245714Y-73428571D01*
X151102857Y-73500000D01*
X151031428Y-73571428D01*
X153460000Y-73071428D02*
X153531428Y-73000000D01*
X153674285Y-72928571D01*
X154031428Y-72928571D01*
X154174285Y-73000000D01*
X154245714Y-73071428D01*
X154317142Y-73214285D01*
X154317142Y-73357142D01*
X154245714Y-73571428D01*
X153388571Y-74428571D01*
X154317142Y-74428571D01*
X155245714Y-72928571D02*
X155388571Y-72928571D01*
X155531428Y-73000000D01*
X155602857Y-73071428D01*
X155674285Y-73214285D01*
X155745714Y-73500000D01*
X155745714Y-73857142D01*
X155674285Y-74142857D01*
X155602857Y-74285714D01*
X155531428Y-74357142D01*
X155388571Y-74428571D01*
X155245714Y-74428571D01*
X155102857Y-74357142D01*
X155031428Y-74285714D01*
X154960000Y-74142857D01*
X154888571Y-73857142D01*
X154888571Y-73500000D01*
X154960000Y-73214285D01*
X155031428Y-73071428D01*
X155102857Y-73000000D01*
X155245714Y-72928571D01*
X156317142Y-73071428D02*
X156388571Y-73000000D01*
X156531428Y-72928571D01*
X156888571Y-72928571D01*
X157031428Y-73000000D01*
X157102857Y-73071428D01*
X157174285Y-73214285D01*
X157174285Y-73357142D01*
X157102857Y-73571428D01*
X156245714Y-74428571D01*
X157174285Y-74428571D01*
X158602857Y-74428571D02*
X157745714Y-74428571D01*
X158174285Y-74428571D02*
X158174285Y-72928571D01*
X158031428Y-73142857D01*
X157888571Y-73285714D01*
X157745714Y-73357142D01*
X136877142Y-69580000D02*
X136734285Y-69508571D01*
X136520000Y-69508571D01*
X136305714Y-69580000D01*
X136162857Y-69722857D01*
X136091428Y-69865714D01*
X136020000Y-70151428D01*
X136020000Y-70365714D01*
X136091428Y-70651428D01*
X136162857Y-70794285D01*
X136305714Y-70937142D01*
X136520000Y-71008571D01*
X136662857Y-71008571D01*
X136877142Y-70937142D01*
X136948571Y-70865714D01*
X136948571Y-70365714D01*
X136662857Y-70365714D01*
X138234285Y-71008571D02*
X138234285Y-70222857D01*
X138162857Y-70080000D01*
X138020000Y-70008571D01*
X137734285Y-70008571D01*
X137591428Y-70080000D01*
X138234285Y-70937142D02*
X138091428Y-71008571D01*
X137734285Y-71008571D01*
X137591428Y-70937142D01*
X137520000Y-70794285D01*
X137520000Y-70651428D01*
X137591428Y-70508571D01*
X137734285Y-70437142D01*
X138091428Y-70437142D01*
X138234285Y-70365714D01*
X138948571Y-71008571D02*
X138948571Y-70008571D01*
X138948571Y-70151428D02*
X139020000Y-70080000D01*
X139162857Y-70008571D01*
X139377142Y-70008571D01*
X139520000Y-70080000D01*
X139591428Y-70222857D01*
X139591428Y-71008571D01*
X139591428Y-70222857D02*
X139662857Y-70080000D01*
X139805714Y-70008571D01*
X140020000Y-70008571D01*
X140162857Y-70080000D01*
X140234285Y-70222857D01*
X140234285Y-71008571D01*
X141520000Y-70937142D02*
X141377142Y-71008571D01*
X141091428Y-71008571D01*
X140948571Y-70937142D01*
X140877142Y-70794285D01*
X140877142Y-70222857D01*
X140948571Y-70080000D01*
X141091428Y-70008571D01*
X141377142Y-70008571D01*
X141520000Y-70080000D01*
X141591428Y-70222857D01*
X141591428Y-70365714D01*
X140877142Y-70508571D01*
X142234285Y-71008571D02*
X142234285Y-69508571D01*
X142234285Y-70080000D02*
X142377142Y-70008571D01*
X142662857Y-70008571D01*
X142805714Y-70080000D01*
X142877142Y-70151428D01*
X142948571Y-70294285D01*
X142948571Y-70722857D01*
X142877142Y-70865714D01*
X142805714Y-70937142D01*
X142662857Y-71008571D01*
X142377142Y-71008571D01*
X142234285Y-70937142D01*
X143805714Y-71008571D02*
X143662857Y-70937142D01*
X143591428Y-70865714D01*
X143520000Y-70722857D01*
X143520000Y-70294285D01*
X143591428Y-70151428D01*
X143662857Y-70080000D01*
X143805714Y-70008571D01*
X144020000Y-70008571D01*
X144162857Y-70080000D01*
X144234285Y-70151428D01*
X144305714Y-70294285D01*
X144305714Y-70722857D01*
X144234285Y-70865714D01*
X144162857Y-70937142D01*
X144020000Y-71008571D01*
X143805714Y-71008571D01*
X144805714Y-70008571D02*
X145162857Y-71008571D01*
X145520000Y-70008571D02*
X145162857Y-71008571D01*
X145020000Y-71365714D01*
X144948571Y-71437142D01*
X144805714Y-71508571D01*
X145734285Y-71151428D02*
X146877142Y-71151428D01*
X147877142Y-70937142D02*
X147734285Y-71008571D01*
X147448571Y-71008571D01*
X147305714Y-70937142D01*
X147234285Y-70865714D01*
X147162857Y-70722857D01*
X147162857Y-70294285D01*
X147234285Y-70151428D01*
X147305714Y-70080000D01*
X147448571Y-70008571D01*
X147734285Y-70008571D01*
X147877142Y-70080000D01*
X149162857Y-71008571D02*
X149162857Y-70222857D01*
X149091428Y-70080000D01*
X148948571Y-70008571D01*
X148662857Y-70008571D01*
X148520000Y-70080000D01*
X149162857Y-70937142D02*
X149020000Y-71008571D01*
X148662857Y-71008571D01*
X148520000Y-70937142D01*
X148448571Y-70794285D01*
X148448571Y-70651428D01*
X148520000Y-70508571D01*
X148662857Y-70437142D01*
X149020000Y-70437142D01*
X149162857Y-70365714D01*
X149877142Y-71008571D02*
X149877142Y-70008571D01*
X149877142Y-70294285D02*
X149948571Y-70151428D01*
X150020000Y-70080000D01*
X150162857Y-70008571D01*
X150305714Y-70008571D01*
X150591428Y-70008571D02*
X151162857Y-70008571D01*
X150805714Y-69508571D02*
X150805714Y-70794285D01*
X150877142Y-70937142D01*
X151020000Y-71008571D01*
X151162857Y-71008571D01*
X151305714Y-71151428D02*
X152448571Y-71151428D01*
X152734285Y-70937142D02*
X152877142Y-71008571D01*
X153162857Y-71008571D01*
X153305714Y-70937142D01*
X153377142Y-70794285D01*
X153377142Y-70722857D01*
X153305714Y-70580000D01*
X153162857Y-70508571D01*
X152948571Y-70508571D01*
X152805714Y-70437142D01*
X152734285Y-70294285D01*
X152734285Y-70222857D01*
X152805714Y-70080000D01*
X152948571Y-70008571D01*
X153162857Y-70008571D01*
X153305714Y-70080000D01*
X154662857Y-70937142D02*
X154520000Y-71008571D01*
X154234285Y-71008571D01*
X154091428Y-70937142D01*
X154020000Y-70865714D01*
X153948571Y-70722857D01*
X153948571Y-70294285D01*
X154020000Y-70151428D01*
X154091428Y-70080000D01*
X154234285Y-70008571D01*
X154520000Y-70008571D01*
X154662857Y-70080000D01*
X155305714Y-71008571D02*
X155305714Y-70008571D01*
X155305714Y-70294285D02*
X155377142Y-70151428D01*
X155448571Y-70080000D01*
X155591428Y-70008571D01*
X155734285Y-70008571D01*
X156805714Y-70937142D02*
X156662857Y-71008571D01*
X156377142Y-71008571D01*
X156234285Y-70937142D01*
X156162857Y-70794285D01*
X156162857Y-70222857D01*
X156234285Y-70080000D01*
X156377142Y-70008571D01*
X156662857Y-70008571D01*
X156805714Y-70080000D01*
X156877142Y-70222857D01*
X156877142Y-70365714D01*
X156162857Y-70508571D01*
X158091428Y-70937142D02*
X157948571Y-71008571D01*
X157662857Y-71008571D01*
X157520000Y-70937142D01*
X157448571Y-70794285D01*
X157448571Y-70222857D01*
X157520000Y-70080000D01*
X157662857Y-70008571D01*
X157948571Y-70008571D01*
X158091428Y-70080000D01*
X158162857Y-70222857D01*
X158162857Y-70365714D01*
X157448571Y-70508571D01*
X158805714Y-70008571D02*
X158805714Y-71008571D01*
X158805714Y-70151428D02*
X158877142Y-70080000D01*
X159020000Y-70008571D01*
X159234285Y-70008571D01*
X159377142Y-70080000D01*
X159448571Y-70222857D01*
X159448571Y-71008571D01*
D11*
G04 #@! TO.C,U1*
X173273640Y-67812080D02*
X173273640Y-77885720D01*
X173273640Y-77885720D02*
X168462880Y-77906040D01*
X173273640Y-67812080D02*
X168462880Y-67832400D01*
G04 #@! TO.C,U3*
X167169047Y-81054788D02*
X167930952Y-81054788D01*
X164634127Y-81054788D02*
X165396032Y-81054788D01*
X165015080Y-81435740D02*
X165015080Y-80673836D01*
G04 #@! TD*
M02*
