G04 #@! TF.GenerationSoftware,KiCad,Pcbnew,5.0.2+dfsg1-1~bpo9+1*
G04 #@! TF.CreationDate,2021-03-14T19:34:14+00:00*
G04 #@! TF.ProjectId,gameboy_cart_screen,67616d65-626f-4795-9f63-6172745f7363,rev?*
G04 #@! TF.SameCoordinates,Original*
G04 #@! TF.FileFunction,Legend,Bot*
G04 #@! TF.FilePolarity,Positive*
%FSLAX46Y46*%
G04 Gerber Fmt 4.6, Leading zero omitted, Abs format (unit mm)*
G04 Created by KiCad (PCBNEW 5.0.2+dfsg1-1~bpo9+1) date Sun 14 Mar 2021 19:34:14 GMT*
%MOMM*%
%LPD*%
G01*
G04 APERTURE LIST*
%ADD10C,0.300000*%
G04 APERTURE END LIST*
D10*
X157741428Y-73642857D02*
X158241428Y-73642857D01*
X158241428Y-74428571D02*
X158241428Y-72928571D01*
X157527142Y-72928571D01*
X156312857Y-74428571D02*
X156312857Y-73642857D01*
X156384285Y-73500000D01*
X156527142Y-73428571D01*
X156812857Y-73428571D01*
X156955714Y-73500000D01*
X156312857Y-74357142D02*
X156455714Y-74428571D01*
X156812857Y-74428571D01*
X156955714Y-74357142D01*
X157027142Y-74214285D01*
X157027142Y-74071428D01*
X156955714Y-73928571D01*
X156812857Y-73857142D01*
X156455714Y-73857142D01*
X156312857Y-73785714D01*
X154955714Y-74357142D02*
X155098571Y-74428571D01*
X155384285Y-74428571D01*
X155527142Y-74357142D01*
X155598571Y-74285714D01*
X155670000Y-74142857D01*
X155670000Y-73714285D01*
X155598571Y-73571428D01*
X155527142Y-73500000D01*
X155384285Y-73428571D01*
X155098571Y-73428571D01*
X154955714Y-73500000D01*
X153741428Y-74357142D02*
X153884285Y-74428571D01*
X154170000Y-74428571D01*
X154312857Y-74357142D01*
X154384285Y-74214285D01*
X154384285Y-73642857D01*
X154312857Y-73500000D01*
X154170000Y-73428571D01*
X153884285Y-73428571D01*
X153741428Y-73500000D01*
X153670000Y-73642857D01*
X153670000Y-73785714D01*
X154384285Y-73928571D01*
X152812857Y-74428571D02*
X152955714Y-74357142D01*
X153027142Y-74214285D01*
X153027142Y-72928571D01*
X151670000Y-74357142D02*
X151812857Y-74428571D01*
X152098571Y-74428571D01*
X152241428Y-74357142D01*
X152312857Y-74214285D01*
X152312857Y-73642857D01*
X152241428Y-73500000D01*
X152098571Y-73428571D01*
X151812857Y-73428571D01*
X151670000Y-73500000D01*
X151598571Y-73642857D01*
X151598571Y-73785714D01*
X152312857Y-73928571D01*
X151027142Y-74357142D02*
X150884285Y-74428571D01*
X150598571Y-74428571D01*
X150455714Y-74357142D01*
X150384285Y-74214285D01*
X150384285Y-74142857D01*
X150455714Y-74000000D01*
X150598571Y-73928571D01*
X150812857Y-73928571D01*
X150955714Y-73857142D01*
X151027142Y-73714285D01*
X151027142Y-73642857D01*
X150955714Y-73500000D01*
X150812857Y-73428571D01*
X150598571Y-73428571D01*
X150455714Y-73500000D01*
X149812857Y-74357142D02*
X149670000Y-74428571D01*
X149384285Y-74428571D01*
X149241428Y-74357142D01*
X149170000Y-74214285D01*
X149170000Y-74142857D01*
X149241428Y-74000000D01*
X149384285Y-73928571D01*
X149598571Y-73928571D01*
X149741428Y-73857142D01*
X149812857Y-73714285D01*
X149812857Y-73642857D01*
X149741428Y-73500000D01*
X149598571Y-73428571D01*
X149384285Y-73428571D01*
X149241428Y-73500000D01*
X148741428Y-73428571D02*
X148170000Y-73428571D01*
X148527142Y-72928571D02*
X148527142Y-74214285D01*
X148455714Y-74357142D01*
X148312857Y-74428571D01*
X148170000Y-74428571D01*
X147098571Y-74357142D02*
X147241428Y-74428571D01*
X147527142Y-74428571D01*
X147670000Y-74357142D01*
X147741428Y-74214285D01*
X147741428Y-73642857D01*
X147670000Y-73500000D01*
X147527142Y-73428571D01*
X147241428Y-73428571D01*
X147098571Y-73500000D01*
X147027142Y-73642857D01*
X147027142Y-73785714D01*
X147741428Y-73928571D01*
X145741428Y-74357142D02*
X145884285Y-74428571D01*
X146170000Y-74428571D01*
X146312857Y-74357142D01*
X146384285Y-74285714D01*
X146455714Y-74142857D01*
X146455714Y-73714285D01*
X146384285Y-73571428D01*
X146312857Y-73500000D01*
X146170000Y-73428571D01*
X145884285Y-73428571D01*
X145741428Y-73500000D01*
X145098571Y-74428571D02*
X145098571Y-72928571D01*
X144455714Y-74428571D02*
X144455714Y-73642857D01*
X144527142Y-73500000D01*
X144670000Y-73428571D01*
X144884285Y-73428571D01*
X145027142Y-73500000D01*
X145098571Y-73571428D01*
X142670000Y-73071428D02*
X142598571Y-73000000D01*
X142455714Y-72928571D01*
X142098571Y-72928571D01*
X141955714Y-73000000D01*
X141884285Y-73071428D01*
X141812857Y-73214285D01*
X141812857Y-73357142D01*
X141884285Y-73571428D01*
X142741428Y-74428571D01*
X141812857Y-74428571D01*
X140884285Y-72928571D02*
X140741428Y-72928571D01*
X140598571Y-73000000D01*
X140527142Y-73071428D01*
X140455714Y-73214285D01*
X140384285Y-73500000D01*
X140384285Y-73857142D01*
X140455714Y-74142857D01*
X140527142Y-74285714D01*
X140598571Y-74357142D01*
X140741428Y-74428571D01*
X140884285Y-74428571D01*
X141027142Y-74357142D01*
X141098571Y-74285714D01*
X141170000Y-74142857D01*
X141241428Y-73857142D01*
X141241428Y-73500000D01*
X141170000Y-73214285D01*
X141098571Y-73071428D01*
X141027142Y-73000000D01*
X140884285Y-72928571D01*
X139812857Y-73071428D02*
X139741428Y-73000000D01*
X139598571Y-72928571D01*
X139241428Y-72928571D01*
X139098571Y-73000000D01*
X139027142Y-73071428D01*
X138955714Y-73214285D01*
X138955714Y-73357142D01*
X139027142Y-73571428D01*
X139884285Y-74428571D01*
X138955714Y-74428571D01*
X137527142Y-74428571D02*
X138384285Y-74428571D01*
X137955714Y-74428571D02*
X137955714Y-72928571D01*
X138098571Y-73142857D01*
X138241428Y-73285714D01*
X138384285Y-73357142D01*
X158592857Y-69660000D02*
X158735714Y-69588571D01*
X158950000Y-69588571D01*
X159164285Y-69660000D01*
X159307142Y-69802857D01*
X159378571Y-69945714D01*
X159450000Y-70231428D01*
X159450000Y-70445714D01*
X159378571Y-70731428D01*
X159307142Y-70874285D01*
X159164285Y-71017142D01*
X158950000Y-71088571D01*
X158807142Y-71088571D01*
X158592857Y-71017142D01*
X158521428Y-70945714D01*
X158521428Y-70445714D01*
X158807142Y-70445714D01*
X157235714Y-71088571D02*
X157235714Y-70302857D01*
X157307142Y-70160000D01*
X157450000Y-70088571D01*
X157735714Y-70088571D01*
X157878571Y-70160000D01*
X157235714Y-71017142D02*
X157378571Y-71088571D01*
X157735714Y-71088571D01*
X157878571Y-71017142D01*
X157950000Y-70874285D01*
X157950000Y-70731428D01*
X157878571Y-70588571D01*
X157735714Y-70517142D01*
X157378571Y-70517142D01*
X157235714Y-70445714D01*
X156521428Y-71088571D02*
X156521428Y-70088571D01*
X156521428Y-70231428D02*
X156450000Y-70160000D01*
X156307142Y-70088571D01*
X156092857Y-70088571D01*
X155950000Y-70160000D01*
X155878571Y-70302857D01*
X155878571Y-71088571D01*
X155878571Y-70302857D02*
X155807142Y-70160000D01*
X155664285Y-70088571D01*
X155450000Y-70088571D01*
X155307142Y-70160000D01*
X155235714Y-70302857D01*
X155235714Y-71088571D01*
X153950000Y-71017142D02*
X154092857Y-71088571D01*
X154378571Y-71088571D01*
X154521428Y-71017142D01*
X154592857Y-70874285D01*
X154592857Y-70302857D01*
X154521428Y-70160000D01*
X154378571Y-70088571D01*
X154092857Y-70088571D01*
X153950000Y-70160000D01*
X153878571Y-70302857D01*
X153878571Y-70445714D01*
X154592857Y-70588571D01*
X153235714Y-71088571D02*
X153235714Y-69588571D01*
X153235714Y-70160000D02*
X153092857Y-70088571D01*
X152807142Y-70088571D01*
X152664285Y-70160000D01*
X152592857Y-70231428D01*
X152521428Y-70374285D01*
X152521428Y-70802857D01*
X152592857Y-70945714D01*
X152664285Y-71017142D01*
X152807142Y-71088571D01*
X153092857Y-71088571D01*
X153235714Y-71017142D01*
X151664285Y-71088571D02*
X151807142Y-71017142D01*
X151878571Y-70945714D01*
X151950000Y-70802857D01*
X151950000Y-70374285D01*
X151878571Y-70231428D01*
X151807142Y-70160000D01*
X151664285Y-70088571D01*
X151450000Y-70088571D01*
X151307142Y-70160000D01*
X151235714Y-70231428D01*
X151164285Y-70374285D01*
X151164285Y-70802857D01*
X151235714Y-70945714D01*
X151307142Y-71017142D01*
X151450000Y-71088571D01*
X151664285Y-71088571D01*
X150664285Y-70088571D02*
X150307142Y-71088571D01*
X149950000Y-70088571D02*
X150307142Y-71088571D01*
X150450000Y-71445714D01*
X150521428Y-71517142D01*
X150664285Y-71588571D01*
X149735714Y-71231428D02*
X148592857Y-71231428D01*
X147592857Y-71017142D02*
X147735714Y-71088571D01*
X148021428Y-71088571D01*
X148164285Y-71017142D01*
X148235714Y-70945714D01*
X148307142Y-70802857D01*
X148307142Y-70374285D01*
X148235714Y-70231428D01*
X148164285Y-70160000D01*
X148021428Y-70088571D01*
X147735714Y-70088571D01*
X147592857Y-70160000D01*
X146307142Y-71088571D02*
X146307142Y-70302857D01*
X146378571Y-70160000D01*
X146521428Y-70088571D01*
X146807142Y-70088571D01*
X146950000Y-70160000D01*
X146307142Y-71017142D02*
X146450000Y-71088571D01*
X146807142Y-71088571D01*
X146950000Y-71017142D01*
X147021428Y-70874285D01*
X147021428Y-70731428D01*
X146950000Y-70588571D01*
X146807142Y-70517142D01*
X146450000Y-70517142D01*
X146307142Y-70445714D01*
X145592857Y-71088571D02*
X145592857Y-70088571D01*
X145592857Y-70374285D02*
X145521428Y-70231428D01*
X145450000Y-70160000D01*
X145307142Y-70088571D01*
X145164285Y-70088571D01*
X144878571Y-70088571D02*
X144307142Y-70088571D01*
X144664285Y-69588571D02*
X144664285Y-70874285D01*
X144592857Y-71017142D01*
X144450000Y-71088571D01*
X144307142Y-71088571D01*
X144164285Y-71231428D02*
X143021428Y-71231428D01*
X142735714Y-71017142D02*
X142592857Y-71088571D01*
X142307142Y-71088571D01*
X142164285Y-71017142D01*
X142092857Y-70874285D01*
X142092857Y-70802857D01*
X142164285Y-70660000D01*
X142307142Y-70588571D01*
X142521428Y-70588571D01*
X142664285Y-70517142D01*
X142735714Y-70374285D01*
X142735714Y-70302857D01*
X142664285Y-70160000D01*
X142521428Y-70088571D01*
X142307142Y-70088571D01*
X142164285Y-70160000D01*
X140807142Y-71017142D02*
X140950000Y-71088571D01*
X141235714Y-71088571D01*
X141378571Y-71017142D01*
X141450000Y-70945714D01*
X141521428Y-70802857D01*
X141521428Y-70374285D01*
X141450000Y-70231428D01*
X141378571Y-70160000D01*
X141235714Y-70088571D01*
X140950000Y-70088571D01*
X140807142Y-70160000D01*
X140164285Y-71088571D02*
X140164285Y-70088571D01*
X140164285Y-70374285D02*
X140092857Y-70231428D01*
X140021428Y-70160000D01*
X139878571Y-70088571D01*
X139735714Y-70088571D01*
X138664285Y-71017142D02*
X138807142Y-71088571D01*
X139092857Y-71088571D01*
X139235714Y-71017142D01*
X139307142Y-70874285D01*
X139307142Y-70302857D01*
X139235714Y-70160000D01*
X139092857Y-70088571D01*
X138807142Y-70088571D01*
X138664285Y-70160000D01*
X138592857Y-70302857D01*
X138592857Y-70445714D01*
X139307142Y-70588571D01*
X137378571Y-71017142D02*
X137521428Y-71088571D01*
X137807142Y-71088571D01*
X137950000Y-71017142D01*
X138021428Y-70874285D01*
X138021428Y-70302857D01*
X137950000Y-70160000D01*
X137807142Y-70088571D01*
X137521428Y-70088571D01*
X137378571Y-70160000D01*
X137307142Y-70302857D01*
X137307142Y-70445714D01*
X138021428Y-70588571D01*
X136664285Y-70088571D02*
X136664285Y-71088571D01*
X136664285Y-70231428D02*
X136592857Y-70160000D01*
X136450000Y-70088571D01*
X136235714Y-70088571D01*
X136092857Y-70160000D01*
X136021428Y-70302857D01*
X136021428Y-71088571D01*
M02*
