G04 #@! TF.GenerationSoftware,KiCad,Pcbnew,5.0.2+dfsg1-1~bpo9+1*
G04 #@! TF.CreationDate,2021-03-14T19:34:14+00:00*
G04 #@! TF.ProjectId,gameboy_cart_screen,67616d65-626f-4795-9f63-6172745f7363,rev?*
G04 #@! TF.SameCoordinates,Original*
G04 #@! TF.FileFunction,Soldermask,Top*
G04 #@! TF.FilePolarity,Negative*
%FSLAX46Y46*%
G04 Gerber Fmt 4.6, Leading zero omitted, Abs format (unit mm)*
G04 Created by KiCad (PCBNEW 5.0.2+dfsg1-1~bpo9+1) date Sun 14 Mar 2021 19:34:14 GMT*
%MOMM*%
%LPD*%
G01*
G04 APERTURE LIST*
%ADD10C,0.100000*%
G04 APERTURE END LIST*
D10*
G36*
X131768698Y-79636568D02*
X131836684Y-79657191D01*
X131899337Y-79690680D01*
X131954252Y-79735748D01*
X131999320Y-79790663D01*
X132032809Y-79853316D01*
X132053432Y-79921302D01*
X132061000Y-79998140D01*
X132061000Y-80961860D01*
X132053432Y-81038698D01*
X132032809Y-81106684D01*
X131999320Y-81169337D01*
X131954252Y-81224252D01*
X131899337Y-81269320D01*
X131836684Y-81302809D01*
X131768698Y-81323432D01*
X131691860Y-81331000D01*
X130728140Y-81331000D01*
X130651302Y-81323432D01*
X130583316Y-81302809D01*
X130520663Y-81269320D01*
X130465748Y-81224252D01*
X130420680Y-81169337D01*
X130387191Y-81106684D01*
X130366568Y-81038698D01*
X130359000Y-80961860D01*
X130359000Y-79998140D01*
X130366568Y-79921302D01*
X130387191Y-79853316D01*
X130420680Y-79790663D01*
X130465748Y-79735748D01*
X130520663Y-79690680D01*
X130583316Y-79657191D01*
X130651302Y-79636568D01*
X130728140Y-79629000D01*
X131691860Y-79629000D01*
X131768698Y-79636568D01*
X131768698Y-79636568D01*
G37*
G36*
X134308698Y-79636568D02*
X134376684Y-79657191D01*
X134439337Y-79690680D01*
X134494252Y-79735748D01*
X134539320Y-79790663D01*
X134572809Y-79853316D01*
X134593432Y-79921302D01*
X134601000Y-79998140D01*
X134601000Y-80961860D01*
X134593432Y-81038698D01*
X134572809Y-81106684D01*
X134539320Y-81169337D01*
X134494252Y-81224252D01*
X134439337Y-81269320D01*
X134376684Y-81302809D01*
X134308698Y-81323432D01*
X134231860Y-81331000D01*
X133268140Y-81331000D01*
X133191302Y-81323432D01*
X133123316Y-81302809D01*
X133060663Y-81269320D01*
X133005748Y-81224252D01*
X132960680Y-81169337D01*
X132927191Y-81106684D01*
X132906568Y-81038698D01*
X132899000Y-80961860D01*
X132899000Y-79998140D01*
X132906568Y-79921302D01*
X132927191Y-79853316D01*
X132960680Y-79790663D01*
X133005748Y-79735748D01*
X133060663Y-79690680D01*
X133123316Y-79657191D01*
X133191302Y-79636568D01*
X133268140Y-79629000D01*
X134231860Y-79629000D01*
X134308698Y-79636568D01*
X134308698Y-79636568D01*
G37*
G36*
X136848698Y-79636568D02*
X136916684Y-79657191D01*
X136979337Y-79690680D01*
X137034252Y-79735748D01*
X137079320Y-79790663D01*
X137112809Y-79853316D01*
X137133432Y-79921302D01*
X137141000Y-79998140D01*
X137141000Y-80961860D01*
X137133432Y-81038698D01*
X137112809Y-81106684D01*
X137079320Y-81169337D01*
X137034252Y-81224252D01*
X136979337Y-81269320D01*
X136916684Y-81302809D01*
X136848698Y-81323432D01*
X136771860Y-81331000D01*
X135808140Y-81331000D01*
X135731302Y-81323432D01*
X135663316Y-81302809D01*
X135600663Y-81269320D01*
X135545748Y-81224252D01*
X135500680Y-81169337D01*
X135467191Y-81106684D01*
X135446568Y-81038698D01*
X135439000Y-80961860D01*
X135439000Y-79998140D01*
X135446568Y-79921302D01*
X135467191Y-79853316D01*
X135500680Y-79790663D01*
X135545748Y-79735748D01*
X135600663Y-79690680D01*
X135663316Y-79657191D01*
X135731302Y-79636568D01*
X135808140Y-79629000D01*
X136771860Y-79629000D01*
X136848698Y-79636568D01*
X136848698Y-79636568D01*
G37*
G36*
X139388698Y-79636568D02*
X139456684Y-79657191D01*
X139519337Y-79690680D01*
X139574252Y-79735748D01*
X139619320Y-79790663D01*
X139652809Y-79853316D01*
X139673432Y-79921302D01*
X139681000Y-79998140D01*
X139681000Y-80961860D01*
X139673432Y-81038698D01*
X139652809Y-81106684D01*
X139619320Y-81169337D01*
X139574252Y-81224252D01*
X139519337Y-81269320D01*
X139456684Y-81302809D01*
X139388698Y-81323432D01*
X139311860Y-81331000D01*
X138348140Y-81331000D01*
X138271302Y-81323432D01*
X138203316Y-81302809D01*
X138140663Y-81269320D01*
X138085748Y-81224252D01*
X138040680Y-81169337D01*
X138007191Y-81106684D01*
X137986568Y-81038698D01*
X137979000Y-80961860D01*
X137979000Y-79998140D01*
X137986568Y-79921302D01*
X138007191Y-79853316D01*
X138040680Y-79790663D01*
X138085748Y-79735748D01*
X138140663Y-79690680D01*
X138203316Y-79657191D01*
X138271302Y-79636568D01*
X138348140Y-79629000D01*
X139311860Y-79629000D01*
X139388698Y-79636568D01*
X139388698Y-79636568D01*
G37*
G36*
X141928698Y-79636568D02*
X141996684Y-79657191D01*
X142059337Y-79690680D01*
X142114252Y-79735748D01*
X142159320Y-79790663D01*
X142192809Y-79853316D01*
X142213432Y-79921302D01*
X142221000Y-79998140D01*
X142221000Y-80961860D01*
X142213432Y-81038698D01*
X142192809Y-81106684D01*
X142159320Y-81169337D01*
X142114252Y-81224252D01*
X142059337Y-81269320D01*
X141996684Y-81302809D01*
X141928698Y-81323432D01*
X141851860Y-81331000D01*
X140888140Y-81331000D01*
X140811302Y-81323432D01*
X140743316Y-81302809D01*
X140680663Y-81269320D01*
X140625748Y-81224252D01*
X140580680Y-81169337D01*
X140547191Y-81106684D01*
X140526568Y-81038698D01*
X140519000Y-80961860D01*
X140519000Y-79998140D01*
X140526568Y-79921302D01*
X140547191Y-79853316D01*
X140580680Y-79790663D01*
X140625748Y-79735748D01*
X140680663Y-79690680D01*
X140743316Y-79657191D01*
X140811302Y-79636568D01*
X140888140Y-79629000D01*
X141851860Y-79629000D01*
X141928698Y-79636568D01*
X141928698Y-79636568D01*
G37*
G36*
X144468698Y-79636568D02*
X144536684Y-79657191D01*
X144599337Y-79690680D01*
X144654252Y-79735748D01*
X144699320Y-79790663D01*
X144732809Y-79853316D01*
X144753432Y-79921302D01*
X144761000Y-79998140D01*
X144761000Y-80961860D01*
X144753432Y-81038698D01*
X144732809Y-81106684D01*
X144699320Y-81169337D01*
X144654252Y-81224252D01*
X144599337Y-81269320D01*
X144536684Y-81302809D01*
X144468698Y-81323432D01*
X144391860Y-81331000D01*
X143428140Y-81331000D01*
X143351302Y-81323432D01*
X143283316Y-81302809D01*
X143220663Y-81269320D01*
X143165748Y-81224252D01*
X143120680Y-81169337D01*
X143087191Y-81106684D01*
X143066568Y-81038698D01*
X143059000Y-80961860D01*
X143059000Y-79998140D01*
X143066568Y-79921302D01*
X143087191Y-79853316D01*
X143120680Y-79790663D01*
X143165748Y-79735748D01*
X143220663Y-79690680D01*
X143283316Y-79657191D01*
X143351302Y-79636568D01*
X143428140Y-79629000D01*
X144391860Y-79629000D01*
X144468698Y-79636568D01*
X144468698Y-79636568D01*
G37*
G36*
X147008698Y-79636568D02*
X147076684Y-79657191D01*
X147139337Y-79690680D01*
X147194252Y-79735748D01*
X147239320Y-79790663D01*
X147272809Y-79853316D01*
X147293432Y-79921302D01*
X147301000Y-79998140D01*
X147301000Y-80961860D01*
X147293432Y-81038698D01*
X147272809Y-81106684D01*
X147239320Y-81169337D01*
X147194252Y-81224252D01*
X147139337Y-81269320D01*
X147076684Y-81302809D01*
X147008698Y-81323432D01*
X146931860Y-81331000D01*
X145968140Y-81331000D01*
X145891302Y-81323432D01*
X145823316Y-81302809D01*
X145760663Y-81269320D01*
X145705748Y-81224252D01*
X145660680Y-81169337D01*
X145627191Y-81106684D01*
X145606568Y-81038698D01*
X145599000Y-80961860D01*
X145599000Y-79998140D01*
X145606568Y-79921302D01*
X145627191Y-79853316D01*
X145660680Y-79790663D01*
X145705748Y-79735748D01*
X145760663Y-79690680D01*
X145823316Y-79657191D01*
X145891302Y-79636568D01*
X145968140Y-79629000D01*
X146931860Y-79629000D01*
X147008698Y-79636568D01*
X147008698Y-79636568D01*
G37*
G36*
X149548698Y-79636568D02*
X149616684Y-79657191D01*
X149679337Y-79690680D01*
X149734252Y-79735748D01*
X149779320Y-79790663D01*
X149812809Y-79853316D01*
X149833432Y-79921302D01*
X149841000Y-79998140D01*
X149841000Y-80961860D01*
X149833432Y-81038698D01*
X149812809Y-81106684D01*
X149779320Y-81169337D01*
X149734252Y-81224252D01*
X149679337Y-81269320D01*
X149616684Y-81302809D01*
X149548698Y-81323432D01*
X149471860Y-81331000D01*
X148508140Y-81331000D01*
X148431302Y-81323432D01*
X148363316Y-81302809D01*
X148300663Y-81269320D01*
X148245748Y-81224252D01*
X148200680Y-81169337D01*
X148167191Y-81106684D01*
X148146568Y-81038698D01*
X148139000Y-80961860D01*
X148139000Y-79998140D01*
X148146568Y-79921302D01*
X148167191Y-79853316D01*
X148200680Y-79790663D01*
X148245748Y-79735748D01*
X148300663Y-79690680D01*
X148363316Y-79657191D01*
X148431302Y-79636568D01*
X148508140Y-79629000D01*
X149471860Y-79629000D01*
X149548698Y-79636568D01*
X149548698Y-79636568D01*
G37*
G36*
X152088698Y-79636568D02*
X152156684Y-79657191D01*
X152219337Y-79690680D01*
X152274252Y-79735748D01*
X152319320Y-79790663D01*
X152352809Y-79853316D01*
X152373432Y-79921302D01*
X152381000Y-79998140D01*
X152381000Y-80961860D01*
X152373432Y-81038698D01*
X152352809Y-81106684D01*
X152319320Y-81169337D01*
X152274252Y-81224252D01*
X152219337Y-81269320D01*
X152156684Y-81302809D01*
X152088698Y-81323432D01*
X152011860Y-81331000D01*
X151048140Y-81331000D01*
X150971302Y-81323432D01*
X150903316Y-81302809D01*
X150840663Y-81269320D01*
X150785748Y-81224252D01*
X150740680Y-81169337D01*
X150707191Y-81106684D01*
X150686568Y-81038698D01*
X150679000Y-80961860D01*
X150679000Y-79998140D01*
X150686568Y-79921302D01*
X150707191Y-79853316D01*
X150740680Y-79790663D01*
X150785748Y-79735748D01*
X150840663Y-79690680D01*
X150903316Y-79657191D01*
X150971302Y-79636568D01*
X151048140Y-79629000D01*
X152011860Y-79629000D01*
X152088698Y-79636568D01*
X152088698Y-79636568D01*
G37*
G36*
X154628698Y-79636568D02*
X154696684Y-79657191D01*
X154759337Y-79690680D01*
X154814252Y-79735748D01*
X154859320Y-79790663D01*
X154892809Y-79853316D01*
X154913432Y-79921302D01*
X154921000Y-79998140D01*
X154921000Y-80961860D01*
X154913432Y-81038698D01*
X154892809Y-81106684D01*
X154859320Y-81169337D01*
X154814252Y-81224252D01*
X154759337Y-81269320D01*
X154696684Y-81302809D01*
X154628698Y-81323432D01*
X154551860Y-81331000D01*
X153588140Y-81331000D01*
X153511302Y-81323432D01*
X153443316Y-81302809D01*
X153380663Y-81269320D01*
X153325748Y-81224252D01*
X153280680Y-81169337D01*
X153247191Y-81106684D01*
X153226568Y-81038698D01*
X153219000Y-80961860D01*
X153219000Y-79998140D01*
X153226568Y-79921302D01*
X153247191Y-79853316D01*
X153280680Y-79790663D01*
X153325748Y-79735748D01*
X153380663Y-79690680D01*
X153443316Y-79657191D01*
X153511302Y-79636568D01*
X153588140Y-79629000D01*
X154551860Y-79629000D01*
X154628698Y-79636568D01*
X154628698Y-79636568D01*
G37*
G36*
X159708698Y-79636568D02*
X159776684Y-79657191D01*
X159839337Y-79690680D01*
X159894252Y-79735748D01*
X159939320Y-79790663D01*
X159972809Y-79853316D01*
X159993432Y-79921302D01*
X160001000Y-79998140D01*
X160001000Y-80961860D01*
X159993432Y-81038698D01*
X159972809Y-81106684D01*
X159939320Y-81169337D01*
X159894252Y-81224252D01*
X159839337Y-81269320D01*
X159776684Y-81302809D01*
X159708698Y-81323432D01*
X159631860Y-81331000D01*
X158668140Y-81331000D01*
X158591302Y-81323432D01*
X158523316Y-81302809D01*
X158460663Y-81269320D01*
X158405748Y-81224252D01*
X158360680Y-81169337D01*
X158327191Y-81106684D01*
X158306568Y-81038698D01*
X158299000Y-80961860D01*
X158299000Y-79998140D01*
X158306568Y-79921302D01*
X158327191Y-79853316D01*
X158360680Y-79790663D01*
X158405748Y-79735748D01*
X158460663Y-79690680D01*
X158523316Y-79657191D01*
X158591302Y-79636568D01*
X158668140Y-79629000D01*
X159631860Y-79629000D01*
X159708698Y-79636568D01*
X159708698Y-79636568D01*
G37*
G36*
X157168698Y-79636568D02*
X157236684Y-79657191D01*
X157299337Y-79690680D01*
X157354252Y-79735748D01*
X157399320Y-79790663D01*
X157432809Y-79853316D01*
X157453432Y-79921302D01*
X157461000Y-79998140D01*
X157461000Y-80961860D01*
X157453432Y-81038698D01*
X157432809Y-81106684D01*
X157399320Y-81169337D01*
X157354252Y-81224252D01*
X157299337Y-81269320D01*
X157236684Y-81302809D01*
X157168698Y-81323432D01*
X157091860Y-81331000D01*
X156128140Y-81331000D01*
X156051302Y-81323432D01*
X155983316Y-81302809D01*
X155920663Y-81269320D01*
X155865748Y-81224252D01*
X155820680Y-81169337D01*
X155787191Y-81106684D01*
X155766568Y-81038698D01*
X155759000Y-80961860D01*
X155759000Y-79998140D01*
X155766568Y-79921302D01*
X155787191Y-79853316D01*
X155820680Y-79790663D01*
X155865748Y-79735748D01*
X155920663Y-79690680D01*
X155983316Y-79657191D01*
X156051302Y-79636568D01*
X156128140Y-79629000D01*
X157091860Y-79629000D01*
X157168698Y-79636568D01*
X157168698Y-79636568D01*
G37*
G36*
X167798228Y-78681703D02*
X167953100Y-78745853D01*
X168092481Y-78838985D01*
X168211015Y-78957519D01*
X168304147Y-79096900D01*
X168368297Y-79251772D01*
X168401000Y-79416184D01*
X168401000Y-79583816D01*
X168368297Y-79748228D01*
X168304147Y-79903100D01*
X168211015Y-80042481D01*
X168092481Y-80161015D01*
X167953100Y-80254147D01*
X167798228Y-80318297D01*
X167633816Y-80351000D01*
X167466184Y-80351000D01*
X167301772Y-80318297D01*
X167146900Y-80254147D01*
X167007519Y-80161015D01*
X166888985Y-80042481D01*
X166795853Y-79903100D01*
X166731703Y-79748228D01*
X166699000Y-79583816D01*
X166699000Y-79416184D01*
X166731703Y-79251772D01*
X166795853Y-79096900D01*
X166888985Y-78957519D01*
X167007519Y-78838985D01*
X167146900Y-78745853D01*
X167301772Y-78681703D01*
X167466184Y-78649000D01*
X167633816Y-78649000D01*
X167798228Y-78681703D01*
X167798228Y-78681703D01*
G37*
G36*
X165258228Y-78681703D02*
X165413100Y-78745853D01*
X165552481Y-78838985D01*
X165671015Y-78957519D01*
X165764147Y-79096900D01*
X165828297Y-79251772D01*
X165861000Y-79416184D01*
X165861000Y-79583816D01*
X165828297Y-79748228D01*
X165764147Y-79903100D01*
X165671015Y-80042481D01*
X165552481Y-80161015D01*
X165413100Y-80254147D01*
X165258228Y-80318297D01*
X165093816Y-80351000D01*
X164926184Y-80351000D01*
X164761772Y-80318297D01*
X164606900Y-80254147D01*
X164467519Y-80161015D01*
X164348985Y-80042481D01*
X164255853Y-79903100D01*
X164191703Y-79748228D01*
X164159000Y-79583816D01*
X164159000Y-79416184D01*
X164191703Y-79251772D01*
X164255853Y-79096900D01*
X164348985Y-78957519D01*
X164467519Y-78838985D01*
X164606900Y-78745853D01*
X164761772Y-78681703D01*
X164926184Y-78649000D01*
X165093816Y-78649000D01*
X165258228Y-78681703D01*
X165258228Y-78681703D01*
G37*
G36*
X172343308Y-75751703D02*
X172498180Y-75815853D01*
X172637561Y-75908985D01*
X172756095Y-76027519D01*
X172849227Y-76166900D01*
X172913377Y-76321772D01*
X172946080Y-76486184D01*
X172946080Y-76653816D01*
X172913377Y-76818228D01*
X172849227Y-76973100D01*
X172756095Y-77112481D01*
X172637561Y-77231015D01*
X172498180Y-77324147D01*
X172343308Y-77388297D01*
X172178896Y-77421000D01*
X172011264Y-77421000D01*
X171846852Y-77388297D01*
X171691980Y-77324147D01*
X171552599Y-77231015D01*
X171434065Y-77112481D01*
X171340933Y-76973100D01*
X171276783Y-76818228D01*
X171244080Y-76653816D01*
X171244080Y-76486184D01*
X171276783Y-76321772D01*
X171340933Y-76166900D01*
X171434065Y-76027519D01*
X171552599Y-75908985D01*
X171691980Y-75815853D01*
X171846852Y-75751703D01*
X172011264Y-75719000D01*
X172178896Y-75719000D01*
X172343308Y-75751703D01*
X172343308Y-75751703D01*
G37*
G36*
X172338228Y-73211703D02*
X172493100Y-73275853D01*
X172632481Y-73368985D01*
X172751015Y-73487519D01*
X172844147Y-73626900D01*
X172908297Y-73781772D01*
X172941000Y-73946184D01*
X172941000Y-74113816D01*
X172908297Y-74278228D01*
X172844147Y-74433100D01*
X172751015Y-74572481D01*
X172632481Y-74691015D01*
X172493100Y-74784147D01*
X172338228Y-74848297D01*
X172173816Y-74881000D01*
X172006184Y-74881000D01*
X171841772Y-74848297D01*
X171686900Y-74784147D01*
X171547519Y-74691015D01*
X171428985Y-74572481D01*
X171335853Y-74433100D01*
X171271703Y-74278228D01*
X171239000Y-74113816D01*
X171239000Y-73946184D01*
X171271703Y-73781772D01*
X171335853Y-73626900D01*
X171428985Y-73487519D01*
X171547519Y-73368985D01*
X171686900Y-73275853D01*
X171841772Y-73211703D01*
X172006184Y-73179000D01*
X172173816Y-73179000D01*
X172338228Y-73211703D01*
X172338228Y-73211703D01*
G37*
G36*
X172343308Y-70671703D02*
X172498180Y-70735853D01*
X172637561Y-70828985D01*
X172756095Y-70947519D01*
X172849227Y-71086900D01*
X172913377Y-71241772D01*
X172946080Y-71406184D01*
X172946080Y-71573816D01*
X172913377Y-71738228D01*
X172849227Y-71893100D01*
X172756095Y-72032481D01*
X172637561Y-72151015D01*
X172498180Y-72244147D01*
X172343308Y-72308297D01*
X172178896Y-72341000D01*
X172011264Y-72341000D01*
X171846852Y-72308297D01*
X171691980Y-72244147D01*
X171552599Y-72151015D01*
X171434065Y-72032481D01*
X171340933Y-71893100D01*
X171276783Y-71738228D01*
X171244080Y-71573816D01*
X171244080Y-71406184D01*
X171276783Y-71241772D01*
X171340933Y-71086900D01*
X171434065Y-70947519D01*
X171552599Y-70828985D01*
X171691980Y-70735853D01*
X171846852Y-70671703D01*
X172011264Y-70639000D01*
X172178896Y-70639000D01*
X172343308Y-70671703D01*
X172343308Y-70671703D01*
G37*
G36*
X172343308Y-68131703D02*
X172498180Y-68195853D01*
X172637561Y-68288985D01*
X172756095Y-68407519D01*
X172849227Y-68546900D01*
X172913377Y-68701772D01*
X172946080Y-68866184D01*
X172946080Y-69033816D01*
X172913377Y-69198228D01*
X172849227Y-69353100D01*
X172756095Y-69492481D01*
X172637561Y-69611015D01*
X172498180Y-69704147D01*
X172343308Y-69768297D01*
X172178896Y-69801000D01*
X172011264Y-69801000D01*
X171846852Y-69768297D01*
X171691980Y-69704147D01*
X171552599Y-69611015D01*
X171434065Y-69492481D01*
X171340933Y-69353100D01*
X171276783Y-69198228D01*
X171244080Y-69033816D01*
X171244080Y-68866184D01*
X171276783Y-68701772D01*
X171340933Y-68546900D01*
X171434065Y-68407519D01*
X171552599Y-68288985D01*
X171691980Y-68195853D01*
X171846852Y-68131703D01*
X172011264Y-68099000D01*
X172178896Y-68099000D01*
X172343308Y-68131703D01*
X172343308Y-68131703D01*
G37*
G36*
X159708698Y-64396568D02*
X159776684Y-64417191D01*
X159839337Y-64450680D01*
X159894252Y-64495748D01*
X159939320Y-64550663D01*
X159972809Y-64613316D01*
X159993432Y-64681302D01*
X160001000Y-64758140D01*
X160001000Y-65721860D01*
X159993432Y-65798698D01*
X159972809Y-65866684D01*
X159939320Y-65929337D01*
X159894252Y-65984252D01*
X159839337Y-66029320D01*
X159776684Y-66062809D01*
X159708698Y-66083432D01*
X159631860Y-66091000D01*
X158668140Y-66091000D01*
X158591302Y-66083432D01*
X158523316Y-66062809D01*
X158460663Y-66029320D01*
X158405748Y-65984252D01*
X158360680Y-65929337D01*
X158327191Y-65866684D01*
X158306568Y-65798698D01*
X158299000Y-65721860D01*
X158299000Y-64758140D01*
X158306568Y-64681302D01*
X158327191Y-64613316D01*
X158360680Y-64550663D01*
X158405748Y-64495748D01*
X158460663Y-64450680D01*
X158523316Y-64417191D01*
X158591302Y-64396568D01*
X158668140Y-64389000D01*
X159631860Y-64389000D01*
X159708698Y-64396568D01*
X159708698Y-64396568D01*
G37*
G36*
X136848698Y-64396568D02*
X136916684Y-64417191D01*
X136979337Y-64450680D01*
X137034252Y-64495748D01*
X137079320Y-64550663D01*
X137112809Y-64613316D01*
X137133432Y-64681302D01*
X137141000Y-64758140D01*
X137141000Y-65721860D01*
X137133432Y-65798698D01*
X137112809Y-65866684D01*
X137079320Y-65929337D01*
X137034252Y-65984252D01*
X136979337Y-66029320D01*
X136916684Y-66062809D01*
X136848698Y-66083432D01*
X136771860Y-66091000D01*
X135808140Y-66091000D01*
X135731302Y-66083432D01*
X135663316Y-66062809D01*
X135600663Y-66029320D01*
X135545748Y-65984252D01*
X135500680Y-65929337D01*
X135467191Y-65866684D01*
X135446568Y-65798698D01*
X135439000Y-65721860D01*
X135439000Y-64758140D01*
X135446568Y-64681302D01*
X135467191Y-64613316D01*
X135500680Y-64550663D01*
X135545748Y-64495748D01*
X135600663Y-64450680D01*
X135663316Y-64417191D01*
X135731302Y-64396568D01*
X135808140Y-64389000D01*
X136771860Y-64389000D01*
X136848698Y-64396568D01*
X136848698Y-64396568D01*
G37*
G36*
X134308698Y-64396568D02*
X134376684Y-64417191D01*
X134439337Y-64450680D01*
X134494252Y-64495748D01*
X134539320Y-64550663D01*
X134572809Y-64613316D01*
X134593432Y-64681302D01*
X134601000Y-64758140D01*
X134601000Y-65721860D01*
X134593432Y-65798698D01*
X134572809Y-65866684D01*
X134539320Y-65929337D01*
X134494252Y-65984252D01*
X134439337Y-66029320D01*
X134376684Y-66062809D01*
X134308698Y-66083432D01*
X134231860Y-66091000D01*
X133268140Y-66091000D01*
X133191302Y-66083432D01*
X133123316Y-66062809D01*
X133060663Y-66029320D01*
X133005748Y-65984252D01*
X132960680Y-65929337D01*
X132927191Y-65866684D01*
X132906568Y-65798698D01*
X132899000Y-65721860D01*
X132899000Y-64758140D01*
X132906568Y-64681302D01*
X132927191Y-64613316D01*
X132960680Y-64550663D01*
X133005748Y-64495748D01*
X133060663Y-64450680D01*
X133123316Y-64417191D01*
X133191302Y-64396568D01*
X133268140Y-64389000D01*
X134231860Y-64389000D01*
X134308698Y-64396568D01*
X134308698Y-64396568D01*
G37*
G36*
X131768698Y-64396568D02*
X131836684Y-64417191D01*
X131899337Y-64450680D01*
X131954252Y-64495748D01*
X131999320Y-64550663D01*
X132032809Y-64613316D01*
X132053432Y-64681302D01*
X132061000Y-64758140D01*
X132061000Y-65721860D01*
X132053432Y-65798698D01*
X132032809Y-65866684D01*
X131999320Y-65929337D01*
X131954252Y-65984252D01*
X131899337Y-66029320D01*
X131836684Y-66062809D01*
X131768698Y-66083432D01*
X131691860Y-66091000D01*
X130728140Y-66091000D01*
X130651302Y-66083432D01*
X130583316Y-66062809D01*
X130520663Y-66029320D01*
X130465748Y-65984252D01*
X130420680Y-65929337D01*
X130387191Y-65866684D01*
X130366568Y-65798698D01*
X130359000Y-65721860D01*
X130359000Y-64758140D01*
X130366568Y-64681302D01*
X130387191Y-64613316D01*
X130420680Y-64550663D01*
X130465748Y-64495748D01*
X130520663Y-64450680D01*
X130583316Y-64417191D01*
X130651302Y-64396568D01*
X130728140Y-64389000D01*
X131691860Y-64389000D01*
X131768698Y-64396568D01*
X131768698Y-64396568D01*
G37*
G36*
X139388698Y-64396568D02*
X139456684Y-64417191D01*
X139519337Y-64450680D01*
X139574252Y-64495748D01*
X139619320Y-64550663D01*
X139652809Y-64613316D01*
X139673432Y-64681302D01*
X139681000Y-64758140D01*
X139681000Y-65721860D01*
X139673432Y-65798698D01*
X139652809Y-65866684D01*
X139619320Y-65929337D01*
X139574252Y-65984252D01*
X139519337Y-66029320D01*
X139456684Y-66062809D01*
X139388698Y-66083432D01*
X139311860Y-66091000D01*
X138348140Y-66091000D01*
X138271302Y-66083432D01*
X138203316Y-66062809D01*
X138140663Y-66029320D01*
X138085748Y-65984252D01*
X138040680Y-65929337D01*
X138007191Y-65866684D01*
X137986568Y-65798698D01*
X137979000Y-65721860D01*
X137979000Y-64758140D01*
X137986568Y-64681302D01*
X138007191Y-64613316D01*
X138040680Y-64550663D01*
X138085748Y-64495748D01*
X138140663Y-64450680D01*
X138203316Y-64417191D01*
X138271302Y-64396568D01*
X138348140Y-64389000D01*
X139311860Y-64389000D01*
X139388698Y-64396568D01*
X139388698Y-64396568D01*
G37*
G36*
X141928698Y-64396568D02*
X141996684Y-64417191D01*
X142059337Y-64450680D01*
X142114252Y-64495748D01*
X142159320Y-64550663D01*
X142192809Y-64613316D01*
X142213432Y-64681302D01*
X142221000Y-64758140D01*
X142221000Y-65721860D01*
X142213432Y-65798698D01*
X142192809Y-65866684D01*
X142159320Y-65929337D01*
X142114252Y-65984252D01*
X142059337Y-66029320D01*
X141996684Y-66062809D01*
X141928698Y-66083432D01*
X141851860Y-66091000D01*
X140888140Y-66091000D01*
X140811302Y-66083432D01*
X140743316Y-66062809D01*
X140680663Y-66029320D01*
X140625748Y-65984252D01*
X140580680Y-65929337D01*
X140547191Y-65866684D01*
X140526568Y-65798698D01*
X140519000Y-65721860D01*
X140519000Y-64758140D01*
X140526568Y-64681302D01*
X140547191Y-64613316D01*
X140580680Y-64550663D01*
X140625748Y-64495748D01*
X140680663Y-64450680D01*
X140743316Y-64417191D01*
X140811302Y-64396568D01*
X140888140Y-64389000D01*
X141851860Y-64389000D01*
X141928698Y-64396568D01*
X141928698Y-64396568D01*
G37*
G36*
X144468698Y-64396568D02*
X144536684Y-64417191D01*
X144599337Y-64450680D01*
X144654252Y-64495748D01*
X144699320Y-64550663D01*
X144732809Y-64613316D01*
X144753432Y-64681302D01*
X144761000Y-64758140D01*
X144761000Y-65721860D01*
X144753432Y-65798698D01*
X144732809Y-65866684D01*
X144699320Y-65929337D01*
X144654252Y-65984252D01*
X144599337Y-66029320D01*
X144536684Y-66062809D01*
X144468698Y-66083432D01*
X144391860Y-66091000D01*
X143428140Y-66091000D01*
X143351302Y-66083432D01*
X143283316Y-66062809D01*
X143220663Y-66029320D01*
X143165748Y-65984252D01*
X143120680Y-65929337D01*
X143087191Y-65866684D01*
X143066568Y-65798698D01*
X143059000Y-65721860D01*
X143059000Y-64758140D01*
X143066568Y-64681302D01*
X143087191Y-64613316D01*
X143120680Y-64550663D01*
X143165748Y-64495748D01*
X143220663Y-64450680D01*
X143283316Y-64417191D01*
X143351302Y-64396568D01*
X143428140Y-64389000D01*
X144391860Y-64389000D01*
X144468698Y-64396568D01*
X144468698Y-64396568D01*
G37*
G36*
X147008698Y-64396568D02*
X147076684Y-64417191D01*
X147139337Y-64450680D01*
X147194252Y-64495748D01*
X147239320Y-64550663D01*
X147272809Y-64613316D01*
X147293432Y-64681302D01*
X147301000Y-64758140D01*
X147301000Y-65721860D01*
X147293432Y-65798698D01*
X147272809Y-65866684D01*
X147239320Y-65929337D01*
X147194252Y-65984252D01*
X147139337Y-66029320D01*
X147076684Y-66062809D01*
X147008698Y-66083432D01*
X146931860Y-66091000D01*
X145968140Y-66091000D01*
X145891302Y-66083432D01*
X145823316Y-66062809D01*
X145760663Y-66029320D01*
X145705748Y-65984252D01*
X145660680Y-65929337D01*
X145627191Y-65866684D01*
X145606568Y-65798698D01*
X145599000Y-65721860D01*
X145599000Y-64758140D01*
X145606568Y-64681302D01*
X145627191Y-64613316D01*
X145660680Y-64550663D01*
X145705748Y-64495748D01*
X145760663Y-64450680D01*
X145823316Y-64417191D01*
X145891302Y-64396568D01*
X145968140Y-64389000D01*
X146931860Y-64389000D01*
X147008698Y-64396568D01*
X147008698Y-64396568D01*
G37*
G36*
X149548698Y-64396568D02*
X149616684Y-64417191D01*
X149679337Y-64450680D01*
X149734252Y-64495748D01*
X149779320Y-64550663D01*
X149812809Y-64613316D01*
X149833432Y-64681302D01*
X149841000Y-64758140D01*
X149841000Y-65721860D01*
X149833432Y-65798698D01*
X149812809Y-65866684D01*
X149779320Y-65929337D01*
X149734252Y-65984252D01*
X149679337Y-66029320D01*
X149616684Y-66062809D01*
X149548698Y-66083432D01*
X149471860Y-66091000D01*
X148508140Y-66091000D01*
X148431302Y-66083432D01*
X148363316Y-66062809D01*
X148300663Y-66029320D01*
X148245748Y-65984252D01*
X148200680Y-65929337D01*
X148167191Y-65866684D01*
X148146568Y-65798698D01*
X148139000Y-65721860D01*
X148139000Y-64758140D01*
X148146568Y-64681302D01*
X148167191Y-64613316D01*
X148200680Y-64550663D01*
X148245748Y-64495748D01*
X148300663Y-64450680D01*
X148363316Y-64417191D01*
X148431302Y-64396568D01*
X148508140Y-64389000D01*
X149471860Y-64389000D01*
X149548698Y-64396568D01*
X149548698Y-64396568D01*
G37*
G36*
X152088698Y-64396568D02*
X152156684Y-64417191D01*
X152219337Y-64450680D01*
X152274252Y-64495748D01*
X152319320Y-64550663D01*
X152352809Y-64613316D01*
X152373432Y-64681302D01*
X152381000Y-64758140D01*
X152381000Y-65721860D01*
X152373432Y-65798698D01*
X152352809Y-65866684D01*
X152319320Y-65929337D01*
X152274252Y-65984252D01*
X152219337Y-66029320D01*
X152156684Y-66062809D01*
X152088698Y-66083432D01*
X152011860Y-66091000D01*
X151048140Y-66091000D01*
X150971302Y-66083432D01*
X150903316Y-66062809D01*
X150840663Y-66029320D01*
X150785748Y-65984252D01*
X150740680Y-65929337D01*
X150707191Y-65866684D01*
X150686568Y-65798698D01*
X150679000Y-65721860D01*
X150679000Y-64758140D01*
X150686568Y-64681302D01*
X150707191Y-64613316D01*
X150740680Y-64550663D01*
X150785748Y-64495748D01*
X150840663Y-64450680D01*
X150903316Y-64417191D01*
X150971302Y-64396568D01*
X151048140Y-64389000D01*
X152011860Y-64389000D01*
X152088698Y-64396568D01*
X152088698Y-64396568D01*
G37*
G36*
X154628698Y-64396568D02*
X154696684Y-64417191D01*
X154759337Y-64450680D01*
X154814252Y-64495748D01*
X154859320Y-64550663D01*
X154892809Y-64613316D01*
X154913432Y-64681302D01*
X154921000Y-64758140D01*
X154921000Y-65721860D01*
X154913432Y-65798698D01*
X154892809Y-65866684D01*
X154859320Y-65929337D01*
X154814252Y-65984252D01*
X154759337Y-66029320D01*
X154696684Y-66062809D01*
X154628698Y-66083432D01*
X154551860Y-66091000D01*
X153588140Y-66091000D01*
X153511302Y-66083432D01*
X153443316Y-66062809D01*
X153380663Y-66029320D01*
X153325748Y-65984252D01*
X153280680Y-65929337D01*
X153247191Y-65866684D01*
X153226568Y-65798698D01*
X153219000Y-65721860D01*
X153219000Y-64758140D01*
X153226568Y-64681302D01*
X153247191Y-64613316D01*
X153280680Y-64550663D01*
X153325748Y-64495748D01*
X153380663Y-64450680D01*
X153443316Y-64417191D01*
X153511302Y-64396568D01*
X153588140Y-64389000D01*
X154551860Y-64389000D01*
X154628698Y-64396568D01*
X154628698Y-64396568D01*
G37*
G36*
X157168698Y-64396568D02*
X157236684Y-64417191D01*
X157299337Y-64450680D01*
X157354252Y-64495748D01*
X157399320Y-64550663D01*
X157432809Y-64613316D01*
X157453432Y-64681302D01*
X157461000Y-64758140D01*
X157461000Y-65721860D01*
X157453432Y-65798698D01*
X157432809Y-65866684D01*
X157399320Y-65929337D01*
X157354252Y-65984252D01*
X157299337Y-66029320D01*
X157236684Y-66062809D01*
X157168698Y-66083432D01*
X157091860Y-66091000D01*
X156128140Y-66091000D01*
X156051302Y-66083432D01*
X155983316Y-66062809D01*
X155920663Y-66029320D01*
X155865748Y-65984252D01*
X155820680Y-65929337D01*
X155787191Y-65866684D01*
X155766568Y-65798698D01*
X155759000Y-65721860D01*
X155759000Y-64758140D01*
X155766568Y-64681302D01*
X155787191Y-64613316D01*
X155820680Y-64550663D01*
X155865748Y-64495748D01*
X155920663Y-64450680D01*
X155983316Y-64417191D01*
X156051302Y-64396568D01*
X156128140Y-64389000D01*
X157091860Y-64389000D01*
X157168698Y-64396568D01*
X157168698Y-64396568D01*
G37*
M02*
